#format: frame checksums
#version: 2
#hash: MD5
#extradata 0,                              16, 9881f4423f0a3b5da25a0574d3451eef
#tb 0: 1/25
#media_type 0: video
#codec_id 0: utvideo
#dimensions 0: 352x288
#sar 0: 0/1
#stream#, dts,        pts, duration,     size, hash
0,          0,          0,        1,   210764, 7c17cd8382580fcfd6dac1ddaa644c8d
0,          1,          1,        1,   210772, 4c6bcde52e58d800927620df9e0e03b8
0,          2,          2,        1,   211564, c0754e5c821ae0c0ca0bae78ad8fe1aa
0,          3,          3,        1,   210032, 6ea988397d00f553c6e5ddbca7a08af9
0,          4,          4,        1,   209168, c2d1fcee61bfdb5e3925aca342550ae5
0,          5,          5,        1,   210284, dc92cc07ac1211e664a24c701c410e0e
0,          6,          6,        1,   210184, 0977e253355bff82f0efd330e94cec6c
0,          7,          7,        1,   210136, d81c28cfef7dd47abf2ac951b6a948e7
0,          8,          8,        1,   210016, d378efd0efe103407afa8b8f45d17e24
0,          9,          9,        1,   210624, 1a7e4a4c7b4ccbd10b9238b22dbc953b
0,         10,         10,        1,   210388, 607fdb29b0bf5846cbbb776459840401
0,         11,         11,        1,   209956, c4c4c18b83db1983b1d9268024027025
0,         12,         12,        1,   208064, f1a73d7fe1dfdeb33758c9d7c61fa81b
0,         13,         13,        1,   209728, ce7b81e19d940ebddeef93e281fed00d
0,         14,         14,        1,   211640, 0d6929d8d034f8accd00f58b887073f5
0,         15,         15,        1,   210932, b895f81c00f959868e24944ee816e0df
0,         16,         16,        1,   210500, c43494420a45bb8fb0a907d3169d30b7
0,         17,         17,        1,   210328, 5e4d72389e2733d8ce274f0c9a7cf7aa
0,         18,         18,        1,   209612, 59d368acc1ea2c0f28ed0787fe5bad4a
0,         19,         19,        1,   209716, 77a331effc0bb544ef1445fd5c42cfe2
0,         20,         20,        1,   208912, 1de694210d8e781ce8ea29add190ad06
0,         21,         21,        1,   209052, b48927d6e1658b5df335c34bf0fc0dc9
0,         22,         22,        1,   209552, 1c00ad79bcf1efdb633baa040f5e1400
0,         23,         23,        1,   210460, 755c6daf2681ba0aed4e4c962faa288c
0,         24,         24,        1,   211136, e6a5687e05a70fc7c741f2ef7afb93b9
0,         25,         25,        1,   210444, 6fe3ec5657f092b009a7bcc4815fc5b3
0,         26,         26,        1,   209764, 19bc9792b30711fb7276a9f74d423c3e
0,         27,         27,        1,   209328, 0144894411a4c5f14c66a393a46bb3b4
0,         28,         28,        1,   207152, 61bbd2676caf8fbe6582274fe8add09d
0,         29,         29,        1,   207360, 9663a6d131b029c9ad7469d67a381823
0,         30,         30,        1,   208608, a0908484dfeead74fb351bb1ba3b514a
0,         31,         31,        1,   209284, 00dda733e216eb968cfdf97f6138294d
0,         32,         32,        1,   209400, 7f7e4d3546ab89ba5eaed835a2fabf64
0,         33,         33,        1,   211120, 3b281fadbc1eed3b4d0e6b14deb4a18f
0,         34,         34,        1,   210488, f3fb93f6504ffee9984574a7b6854d89
0,         35,         35,        1,   209952, 1ccf5aa118c8cd51e099749289fdc374
0,         36,         36,        1,   209140, 4e4c0f0a38608f1ff760a7ada9d44a6f
0,         37,         37,        1,   209380, dac76683c0ce9e1008fe1490dc1479bf
0,         38,         38,        1,   207004, e914b5454210fc6b4c39d22b7daf16da
0,         39,         39,        1,   206968, 0a9566c879a6897536ec094100f32fbf
0,         40,         40,        1,   207368, a644c2b3b8c89ec01b2b51576a5b09b5
0,         41,         41,        1,   208628, 2ce6ca69d5f6e29641f5a907ffac9bb0
0,         42,         42,        1,   208976, d3be7fe389e80df517eafd0c861947a2
0,         43,         43,        1,   209316, c5148e0073cebd50d8f619d4875874dd
0,         44,         44,        1,   208356, 54e0082cdc1aa7fcbb8c655e94fbd410
0,         45,         45,        1,   206620, 77ec6d3714a0dcbf0cdd5349df0951fc
0,         46,         46,        1,   205932, 7857acd2afd3169126a5428ddef97abd
0,         47,         47,        1,   206524, c903ec677106ec1f7f583bb813a1120a
0,         48,         48,        1,   206444, ea549da62a460b50811cb3f182fe5c19
0,         49,         49,        1,   205460, 81d823633491b13a31dfdbc5f33d79f4
